{
	"asset":{
		"generator":"Khronos glTF Blender I/O v4.1.62",
		"version":"2.0"
	},
	"extensionsUsed":[
		"KHR_materials_specular"
	],
	"scene":0,
	"scenes":[
		{
			"name":"Scene",
			"nodes":[
				0
			]
		}
	],
	"nodes":[
		{
			"mesh":0,
			"name":"Extract21",
			"rotation":[
				0.7071068286895752,
				0,
				0,
				0.7071068286895752
			],
			"scale":[
				0.009999999776482582,
				0.009999999776482582,
				0.009999999776482582
			]
		}
	],
	"animations":[
		{
			"channels":[
				{
					"sampler":0,
					"target":{
						"node":0,
						"path":"weights"
					}
				}
			],
			"name":"KeyAction",
			"samplers":[
				{
					"input":8,
					"interpolation":"LINEAR",
					"output":9
				}
			]
		}
	],
	"materials":[
		{
			"doubleSided":true,
			"extensions":{
				"KHR_materials_specular":{
					"specularColorFactor":[
						2.0,
						2.0,
						2.0
					]
				}
			},
			"name":"Extract21",
			"pbrMetallicRoughness":{}
		}
	],
	"meshes":[
		{
			"extras":{
				"targetNames":[
					"eye_close",
					"lip"
				]
			},
			"name":"Extract21",
			"primitives":[
				{
					"attributes":{
						"POSITION":0,
						"NORMAL":1,
						"COLOR_0":2
					},
					"indices":3,
					"material":0,
					"targets":[
						{
							"POSITION":4,
							"NORMAL":5
						},
						{
							"POSITION":6,
							"NORMAL":7
						}
					]
				}
			],
			"weights":[
				0,
				0
			]
		}
	],
	"accessors":[
		{
			"bufferView":0,
			"componentType":5126,
			"count":826264,
			"max":[
				2.668539524078369,
				0.5078105926513672,
				0.9279608726501465
			],
			"min":[
				-2.694490909576416,
				-3.480409622192383,
				-5.986395359039307
			],
			"type":"VEC3"
		},
		{
			"bufferView":1,
			"componentType":5126,
			"count":826264,
			"type":"VEC3"
		},
		{
			"bufferView":2,
			"componentType":5126,
			"count":826264,
			"type":"VEC3"
		},
		{
			"bufferView":3,
			"componentType":5125,
			"count":4911180,
			"type":"SCALAR"
		},
		{
			"componentType":5126,
			"count":826264,
			"max":[
				0.013676345348358154,
				0.009503133594989777,
				0.11498117446899414
			],
			"min":[
				-0.014384090900421143,
				-0.004796728491783142,
				-0.057710886001586914
			],
			"sparse":{
				"count":32072,
				"indices":{
					"bufferView":4,
					"componentType":5125
				},
				"values":{
					"bufferView":5
				}
			},
			"type":"VEC3"
		},
		{
			"bufferView":6,
			"componentType":5126,
			"count":826264,
			"type":"VEC3"
		},
		{
			"componentType":5126,
			"count":826264,
			"max":[
				0.029167920351028442,
				0.0057013556361198425,
				0.019014835357666016
			],
			"min":[
				-0.030168727040290833,
				-0.004677578806877136,
				-0.025606155395507812
			],
			"sparse":{
				"count":1648,
				"indices":{
					"bufferView":7,
					"componentType":5125
				},
				"values":{
					"bufferView":8
				}
			},
			"type":"VEC3"
		},
		{
			"bufferView":9,
			"componentType":5126,
			"count":826264,
			"type":"VEC3"
		},
		{
			"bufferView":10,
			"componentType":5126,
			"count":18,
			"max":[
				0.72
			],
			"min":[
				0.04
			],
			"type":"SCALAR"
		},
		{
			"bufferView":11,
			"componentType":5126,
			"count":36,
			"type":"SCALAR"
		}
	],
	"bufferViews":[
		{
			"buffer":0,
			"byteLength":9915168,
			"byteOffset":0,
			"target":34962
		},
		{
			"buffer":0,
			"byteLength":9915168,
			"byteOffset":9915168,
			"target":34962
		},
		{
			"buffer":0,
			"byteLength":9915168,
			"byteOffset":19830336,
			"target":34962
		},
		{
			"buffer":0,
			"byteLength":19644720,
			"byteOffset":29745504,
			"target":34963
		},
		{
			"buffer":0,
			"byteLength":128288,
			"byteOffset":49390224
		},
		{
			"buffer":0,
			"byteLength":384864,
			"byteOffset":49518512
		},
		{
			"buffer":0,
			"byteLength":9915168,
			"byteOffset":49903376,
			"target":34962
		},
		{
			"buffer":0,
			"byteLength":6592,
			"byteOffset":59818544
		},
		{
			"buffer":0,
			"byteLength":19776,
			"byteOffset":59825136
		},
		{
			"buffer":0,
			"byteLength":9915168,
			"byteOffset":59844912,
			"target":34962
		},
		{
			"buffer":0,
			"byteLength":72,
			"byteOffset":69760080
		},
		{
			"buffer":0,
			"byteLength":144,
			"byteOffset":69760152
		}
	],
	"buffers":[
		{
			"byteLength":69760296,
			"uri":"colorized2.bin"
		}
	]
}
